<svg id="image_black_24dp" xmlns="http://www.w3.org/2000/svg" width="44" height="44" viewBox="0 0 44 44">
  <path id="Trazado_3986" data-name="Trazado 3986" d="M0,0H44V44H0Z" fill="none"/>
  <path id="Trazado_3987" data-name="Trazado 3987" d="M36.778,7.222V36.778H7.222V7.222H36.778m0-4.222H7.222A4.235,4.235,0,0,0,3,7.222V36.778A4.235,4.235,0,0,0,7.222,41H36.778A4.235,4.235,0,0,0,41,36.778V7.222A4.235,4.235,0,0,0,36.778,3ZM26.518,21.7l-6.333,8.17-4.518-5.468L9.333,32.556H34.667L26.518,21.7Z" transform="translate(0 0)" fill="#19abbb"/>
</svg>
