<svg xmlns="http://www.w3.org/2000/svg" width="24" height="24" viewBox="0 0 24 24">
  <path id="Trazado_4059" data-name="Trazado 4059" d="M12,6a1,1,0,0,0-1-1H5.82l.66-3.18.02-.23a1.161,1.161,0,0,0-.33-.8L5.38,0,.44,4.94A1.505,1.505,0,0,0,0,6v6.5A1.5,1.5,0,0,0,1.5,14H8.25a1.509,1.509,0,0,0,1.38-.91L11.89,7.8A1.459,1.459,0,0,0,12,7.25Zm10.5,4H15.75a1.509,1.509,0,0,0-1.38.91L12.11,16.2a1.459,1.459,0,0,0-.11.55V18a1,1,0,0,0,1,1h5.18l-.66,3.18-.02.24a1.161,1.161,0,0,0,.33.8l.79.78,4.94-4.94A1.505,1.505,0,0,0,24,18V11.5A1.5,1.5,0,0,0,22.5,10Z" fill="#19abbb"/>
</svg>
