<svg id="account_tree_black_24dp" xmlns="http://www.w3.org/2000/svg" width="44" height="44" viewBox="0 0 44 44">
  <rect id="Rectángulo_1889" data-name="Rectángulo 1889" width="44" height="44" fill="none"/>
  <path id="Trazado_3994" data-name="Trazado 3994" d="M32,19.889h6a4.115,4.115,0,0,0,4-4.222V7.222A4.114,4.114,0,0,0,38,3H32a4.115,4.115,0,0,0-4,4.222V9.333H16.02V7.222A4.114,4.114,0,0,0,12.02,3H6A4.128,4.128,0,0,0,2,7.222v8.444a4.114,4.114,0,0,0,4,4.222h6a4.115,4.115,0,0,0,4-4.222V13.556h4v14.8a6.156,6.156,0,0,0,5.98,6.312H28v2.111A4.114,4.114,0,0,0,32,41h6a4.115,4.115,0,0,0,4-4.222V28.333a4.114,4.114,0,0,0-4-4.222H32a4.115,4.115,0,0,0-4,4.222v2.111H25.98A2.055,2.055,0,0,1,24,28.354v-14.8h4v2.111A4.128,4.128,0,0,0,32,19.889Z" transform="translate(0 0)" fill="#19abbb"/>
</svg>
