<svg xmlns="http://www.w3.org/2000/svg" width="24" height="24" viewBox="0 0 24 24">
  <g id="Grupo_7429" data-name="Grupo 7429" transform="translate(-1165 -417)">
    <g id="check_circle_outline_black_24dp" transform="translate(1165 417)">
      <path id="Trazado_3926" data-name="Trazado 3926" d="M0,0H24V24H0Z" fill="none"/>
      <path id="Trazado_3927" data-name="Trazado 3927" d="M12,2A10,10,0,1,0,22,12,10,10,0,0,0,12,2Zm0,18a8,8,0,1,1,8-8A8.011,8.011,0,0,1,12,20ZM15.88,8.29,10,14.17,8.12,12.29A1,1,0,0,0,6.71,13.7L9.3,16.29a1,1,0,0,0,1.41,0L17.3,9.7a1,1,0,0,0,0-1.41,1.008,1.008,0,0,0-1.42,0Z" fill="#069169"/>
    </g>
  </g>
</svg>
