<svg xmlns="http://www.w3.org/2000/svg" width="24" height="24" viewBox="0 0 24 24">
  <g id="Grupo_7746" data-name="Grupo 7746" transform="translate(-1306 -336)">
    <path id="playlist_add_check_black_24dp" d="M13,10H3a1,1,0,0,0,0,2H13a1,1,0,0,0,0-2Zm0-4H3A1,1,0,0,0,3,8H13a1,1,0,0,0,0-2ZM3,16H9a1,1,0,0,0,0-2H3a1,1,0,0,0,0,2Zm19.21-3.79.09.09a1,1,0,0,1,0,1.41L16.72,19.3a1,1,0,0,1-1.41,0l-3.09-3.09a1,1,0,0,1,0-1.41l.09-.09a1,1,0,0,1,1.41,0l2.3,2.3,4.78-4.79a.987.987,0,0,1,1.41-.01Z" transform="translate(1305 335)" fill="#19abbb"/>
    <rect id="Rectángulo_2025" data-name="Rectángulo 2025" width="24" height="24" transform="translate(1306 336)" fill="none"/>
  </g>
</svg>
