<svg id="receipt_black_24dp" xmlns="http://www.w3.org/2000/svg" width="44" height="44" viewBox="0 0 44 44">
  <path id="Trazado_3981" data-name="Trazado 3981" d="M0,0H44V44H0Z" fill="none"/>
  <path id="Trazado_3982" data-name="Trazado 3982" d="M36,2.218a.86.86,0,0,0-.642.275L33.91,3.942a.908.908,0,0,1-1.3,0L31.16,2.493a.908.908,0,0,0-1.3,0L28.41,3.942a.908.908,0,0,1-1.3,0L25.66,2.493a.908.908,0,0,0-1.3,0L22.91,3.942a.908.908,0,0,1-1.3,0L20.16,2.493a.908.908,0,0,0-1.3,0L17.41,3.942a.908.908,0,0,1-1.3,0L14.642,2.475a.908.908,0,0,0-1.3,0L11.892,3.942a.908.908,0,0,1-1.3,0L9.142,2.475a.908.908,0,0,0-1.3,0L6.392,3.942a.908.908,0,0,1-1.3,0L3.642,2.475A.916.916,0,0,0,3,2.218V38.133a.86.86,0,0,0,.642-.275L5.09,36.41a.908.908,0,0,1,1.3,0L7.84,37.858a.908.908,0,0,0,1.3,0L10.59,36.41a.908.908,0,0,1,1.3,0l1.448,1.448a.908.908,0,0,0,1.3,0L16.09,36.41a.908.908,0,0,1,1.3,0l1.448,1.448a.908.908,0,0,0,1.3,0L21.59,36.41a.908.908,0,0,1,1.3,0l1.448,1.448a.908.908,0,0,0,1.3,0L27.09,36.41a.908.908,0,0,1,1.3,0l1.448,1.448a.908.908,0,0,0,1.3,0L32.59,36.41a.908.908,0,0,1,1.3,0l1.448,1.448a.921.921,0,0,0,.642.275V2.218ZM28.667,29.333H10.333a1.833,1.833,0,0,1,0-3.667H28.667a1.833,1.833,0,0,1,0,3.667Zm0-7.333H10.333a1.833,1.833,0,1,1,0-3.667H28.667a1.833,1.833,0,1,1,0,3.667Zm0-7.333H10.333a1.833,1.833,0,0,1,0-3.667H28.667a1.833,1.833,0,1,1,0,3.667Z" transform="translate(2.5 1.833)" fill="#19abbb"/>
</svg>
