<svg id="quiz_black_24dp" xmlns="http://www.w3.org/2000/svg" width="44" height="44" viewBox="0 0 44 44">
  <g id="Grupo_6187" data-name="Grupo 6187">
    <path id="Trazado_3367" data-name="Trazado 3367" d="M0,0H44V44H0Z" fill="none"/>
  </g>
  <g id="Grupo_6189" data-name="Grupo 6189" transform="translate(3.667 3.667)">
    <g id="Grupo_6188" data-name="Grupo 6188">
      <path id="Trazado_3368" data-name="Trazado 3368" d="M5.667,6H2V31.667a3.677,3.677,0,0,0,3.667,3.667H31.333V31.667H5.667Z" transform="translate(-2 1.333)" fill="#19abbb"/>
      <path id="Trazado_3369" data-name="Trazado 3369" d="M31.667,2h-22A3.677,3.677,0,0,0,6,5.667v22a3.677,3.677,0,0,0,3.667,3.667h22a3.677,3.677,0,0,0,3.667-3.667v-22A3.677,3.677,0,0,0,31.667,2ZM20.685,25.833a1.916,1.916,0,1,1,0-3.832,1.871,1.871,0,0,1,1.907,1.907A1.909,1.909,0,0,1,20.685,25.833Zm4.583-11.312c-1.155,1.705-2.255,2.218-2.86,3.318-.238.44-.33.733-.33,2.163H19.292a5.906,5.906,0,0,1,.477-3.025c.752-1.338,2.163-2.127,2.988-3.3a2.262,2.262,0,0,0-2.09-3.557,2.913,2.913,0,0,0-2.75,2.255L15.4,11.332A5.456,5.456,0,0,1,20.648,7.5a5.186,5.186,0,0,1,4.6,2.31A4.6,4.6,0,0,1,25.268,14.522Z" transform="translate(1.333 -2)" fill="#19abbb"/>
    </g>
  </g>
</svg>
