<svg xmlns="http://www.w3.org/2000/svg" width="300" height="82.951" viewBox="0 0 300 82.951">
  <g id="geometrias" transform="translate(-251.966 -15.575)" style="isolation: isolate">
    <g id="LogoUN" transform="translate(251.966 15.575)" style="mix-blend-mode: difference;isolation: isolate">
      <g id="Grupo_6803" data-name="Grupo 6803">
        <g id="Grupo_6798" data-name="Grupo 6798" transform="translate(83.489 22.072)">
          <path id="Trazado_3942" data-name="Trazado 3942" d="M1164.559,727.2H1171V739.53a10.281,10.281,0,0,1-.578,3.464,7.455,7.455,0,0,1-1.808,2.848,7.214,7.214,0,0,1-2.588,1.713,13.07,13.07,0,0,1-4.519.7,28.531,28.531,0,0,1-3.322-.214,8.82,8.82,0,0,1-3.017-.837,7.632,7.632,0,0,1-2.217-1.785,6.524,6.524,0,0,1-1.372-2.386,12.183,12.183,0,0,1-.6-3.5V727.2h6.442V739.82a3.577,3.577,0,1,0,7.138,0Z" transform="translate(-1150.979 -726.841)" fill="#4b4b4b"/>
          <path id="Trazado_3943" data-name="Trazado 3943" d="M1157.193,727.2h6.03l7.864,11.451V727.2h6.086v20.7h-6.086l-7.826-11.363V747.9h-6.068Z" transform="translate(-1133.435 -726.841)" fill="#4b4b4b"/>
          <path id="Trazado_3944" data-name="Trazado 3944" d="M1163.455,727.2h6.473v20.7h-6.473Z" transform="translate(-1115.756 -726.841)" fill="#4b4b4b"/>
          <path id="Trazado_3945" data-name="Trazado 3945" d="M1165.67,727.2h6.748l4.7,14.9,4.641-14.9h6.553l-7.757,20.7h-7Z" transform="translate(-1109.502 -726.841)" fill="#4b4b4b"/>
          <path id="Trazado_3946" data-name="Trazado 3946" d="M1171.988,727.2h17.3v4.42h-10.831V734.9H1188.5v4.225h-10.047v4.079H1189.6V747.9h-17.613Z" transform="translate(-1091.665 -726.841)" fill="#4b4b4b"/>
          <path id="Trazado_3947" data-name="Trazado 3947" d="M1177.375,747.9V727.2h10.759a15.7,15.7,0,0,1,4.573.509,4.857,4.857,0,0,1,2.554,1.885,5.821,5.821,0,0,1-1.812,8.35,7.775,7.775,0,0,1-2.267.822,4.346,4.346,0,0,1,2.711,1.85,7.933,7.933,0,0,1,.906,1.288l3.127,5.995h-7.295l-3.453-6.327a4.769,4.769,0,0,0-1.17-1.594,2.715,2.715,0,0,0-1.579-.478h-.574v8.4Zm6.48-12.311h2.726a9.964,9.964,0,0,0,1.709-.283,1.723,1.723,0,0,0,1.048-.65,2.08,2.08,0,0,0-.237-2.737,3.882,3.882,0,0,0-2.409-.539h-2.837Z" transform="translate(-1076.456 -726.841)" fill="#4b4b4b"/>
          <path id="Trazado_3948" data-name="Trazado 3948" d="M1182.843,741.31l6.144-.382a4.618,4.618,0,0,0,.811,2.26,3.434,3.434,0,0,0,2.852,1.258,3.178,3.178,0,0,0,2.13-.642,1.926,1.926,0,0,0,.749-1.491,1.89,1.89,0,0,0-.715-1.437,8.25,8.25,0,0,0-3.3-1.2,14.1,14.1,0,0,1-6.06-2.512,5.034,5.034,0,0,1-1.824-3.991,5.357,5.357,0,0,1,.936-3.017,6.132,6.132,0,0,1,2.806-2.233,13.172,13.172,0,0,1,5.135-.814,10.579,10.579,0,0,1,6.106,1.476,6.365,6.365,0,0,1,2.5,4.7l-6.086.352a3.223,3.223,0,0,0-1.017-2.034,3.3,3.3,0,0,0-2.145-.635,2.612,2.612,0,0,0-1.7.47,1.449,1.449,0,0,0-.57,1.155,1.147,1.147,0,0,0,.47.887,5.222,5.222,0,0,0,2.164.765,27,27,0,0,1,6.064,1.828,6.357,6.357,0,0,1,2.669,2.294,5.789,5.789,0,0,1,.83,3.063,6.526,6.526,0,0,1-1.109,3.674,6.944,6.944,0,0,1-3.1,2.546,12.633,12.633,0,0,1-5.032.872q-5.332,0-7.386-2.034A7.982,7.982,0,0,1,1182.843,741.31Z" transform="translate(-1061.018 -727.103)" fill="#4b4b4b"/>
          <path id="Trazado_3949" data-name="Trazado 3949" d="M1188.565,727.2h6.469v20.7h-6.469Z" transform="translate(-1044.864 -726.841)" fill="#4b4b4b"/>
          <path id="Trazado_3950" data-name="Trazado 3950" d="M1191.339,727.2h9.593a11.582,11.582,0,0,1,4.58.761,7.412,7.412,0,0,1,2.883,2.191,9.012,9.012,0,0,1,1.651,3.315,15.192,15.192,0,0,1,.516,4.01,13.9,13.9,0,0,1-.761,5.15,8.536,8.536,0,0,1-2.118,3.062,6.892,6.892,0,0,1-2.906,1.644,15.019,15.019,0,0,1-3.846.566h-9.593Zm6.453,4.688v11.309h1.583a6.688,6.688,0,0,0,2.879-.444,3.017,3.017,0,0,0,1.338-1.552,9.7,9.7,0,0,0,.486-3.593q0-3.292-1.086-4.508a4.592,4.592,0,0,0-3.59-1.212Z" transform="translate(-1037.032 -726.841)" fill="#4b4b4b"/>
          <path id="Trazado_3951" data-name="Trazado 3951" d="M1211.167,744.477h-7.329l-1.017,3.418h-6.6l7.854-20.7h7.046l7.849,20.7h-6.764ZM1209.824,740l-2.3-7.444L1205.24,740Z" transform="translate(-1023.238 -726.841)" fill="#4b4b4b"/>
          <path id="Trazado_3952" data-name="Trazado 3952" d="M1202.581,727.2h9.592a11.585,11.585,0,0,1,4.58.761,7.452,7.452,0,0,1,2.887,2.191,9,9,0,0,1,1.651,3.315,15.362,15.362,0,0,1,.512,4.01,13.831,13.831,0,0,1-.761,5.15,8.481,8.481,0,0,1-2.119,3.062,6.863,6.863,0,0,1-2.905,1.644,15.01,15.01,0,0,1-3.846.566h-9.592Zm6.457,4.688v11.309h1.579a6.685,6.685,0,0,0,2.879-.444,3.045,3.045,0,0,0,1.342-1.552,9.729,9.729,0,0,0,.482-3.593q0-3.292-1.082-4.508a4.6,4.6,0,0,0-3.59-1.212Z" transform="translate(-1005.293 -726.841)" fill="#4b4b4b"/>
        </g>
        <g id="Grupo_6799" data-name="Grupo 6799" transform="translate(83.5 49.806)">
          <path id="Trazado_3953" data-name="Trazado 3953" d="M1150.982,734.449h9.623a11.656,11.656,0,0,1,4.6.765,7.48,7.48,0,0,1,2.894,2.187,8.984,8.984,0,0,1,1.659,3.322,15.123,15.123,0,0,1,.516,4.007,13.729,13.729,0,0,1-.768,5.15,8.464,8.464,0,0,1-2.122,3.066,6.933,6.933,0,0,1-2.917,1.64,15.137,15.137,0,0,1-3.862.569h-9.623Zm6.477,4.691v11.309h1.59a6.772,6.772,0,0,0,2.887-.443,3.03,3.03,0,0,0,1.345-1.556,9.593,9.593,0,0,0,.486-3.59q0-3.292-1.086-4.508a4.648,4.648,0,0,0-3.605-1.212Z" transform="translate(-1150.982 -734.097)" fill="#4b4b4b"/>
          <path id="Trazado_3954" data-name="Trazado 3954" d="M1157.221,734.449h17.361v4.42h-10.87v3.292h10.082v4.225h-10.082v4.079H1174.9v4.691h-17.675Z" transform="translate(-1133.368 -734.097)" fill="#4b4b4b"/>
          <path id="Trazado_3955" data-name="Trazado 3955" d="M1163.37,734.449h6.473v15.607h10.113v5.1H1163.37Z" transform="translate(-1116.008 -734.097)" fill="#4b4b4b"/>
          <path id="Trazado_3956" data-name="Trazado 3956" d="M1176.329,734.449h6.049l7.895,11.455V734.449h6.106v20.707h-6.106l-7.853-11.37v11.37h-6.091Z" transform="translate(-1079.421 -734.097)" fill="#4b4b4b"/>
          <path id="Trazado_3957" data-name="Trazado 3957" d="M1183.1,745.077q0-5.075,2.864-7.9t7.96-2.825q5.236,0,8.071,2.776t2.829,7.773a12.6,12.6,0,0,1-1.239,5.953,8.76,8.76,0,0,1-3.575,3.617,11.933,11.933,0,0,1-5.827,1.292,13.566,13.566,0,0,1-5.868-1.117,8.8,8.8,0,0,1-3.77-3.532A11.586,11.586,0,0,1,1183.1,745.077Zm6.48.027q0,3.131,1.177,4.5a4.51,4.51,0,0,0,6.442.03q1.147-1.342,1.143-4.817a6.337,6.337,0,0,0-1.193-4.271,4.1,4.1,0,0,0-3.238-1.35,3.966,3.966,0,0,0-3.146,1.369Q1189.577,741.94,1189.578,745.1Z" transform="translate(-1060.31 -734.357)" fill="#4b4b4b"/>
          <path id="Trazado_3958" data-name="Trazado 3958" d="M1190.327,755.156V734.449h10.8a15.82,15.82,0,0,1,4.592.512,4.878,4.878,0,0,1,2.561,1.885,5.662,5.662,0,0,1,.971,3.349,5.508,5.508,0,0,1-2.791,5,7.809,7.809,0,0,1-2.274.818,6.588,6.588,0,0,1,1.686.765,6.386,6.386,0,0,1,1.04,1.086,7.73,7.73,0,0,1,.9,1.288l3.139,6h-7.318l-3.464-6.331a4.832,4.832,0,0,0-1.174-1.594,2.756,2.756,0,0,0-1.587-.478h-.569v8.4Zm6.511-12.318h2.73a9.574,9.574,0,0,0,1.717-.283,1.7,1.7,0,0,0,1.052-.646,2.075,2.075,0,0,0-.238-2.741,3.952,3.952,0,0,0-2.42-.535h-2.84Z" transform="translate(-1039.901 -734.097)" fill="#4b4b4b"/>
          <path id="Trazado_3959" data-name="Trazado 3959" d="M1196.424,734.449h19.689v5.112h-6.606v15.595h-6.477V739.561h-6.606Z" transform="translate(-1022.687 -734.097)" fill="#4b4b4b"/>
          <path id="Trazado_3960" data-name="Trazado 3960" d="M1202.95,734.449h17.357v4.42h-10.866v3.292h10.082v4.225h-10.082v4.079h11.183v4.691H1202.95Z" transform="translate(-1004.263 -734.097)" fill="#4b4b4b"/>
        </g>
        <g id="Grupo_6802" data-name="Grupo 6802">
          <g id="Grupo_6801" data-name="Grupo 6801" transform="translate(5.801 71.725)">
            <g id="Grupo_6800" data-name="Grupo 6800">
              <path id="Trazado_3961" data-name="Trazado 3961" d="M1189.908,741.355c-.057-.394-.126-1.281-1.663-1.265l-53.537.1c-1.671.069-1.87.906-2.165,2.049-.994,4.041-.94,3.762-1.816,7.536-.073.6-.34,1.571,1.071,1.537l28.334-6.683a9.009,9.009,0,0,1,2.42-.019c10.736,2.611,18.015,4.071,28.7,6.686.925.031,1.128-.6,1-1.342-1.147-4.317-1.193-4.317-2.344-8.6" transform="translate(-1130.659 -740.09)" fill="#4b4b4b"/>
            </g>
          </g>
          <path id="Trazado_3962" data-name="Trazado 3962" d="M1164.534,721.587c-2.5,8.342-5.521,14.463-8.484,21.441-.379.566-.754.719-2.092.738-8.6.065-13.936-.111-22.5-.019-1.132.019-2.3.287-2.321,2.516V789.74c.023,1.151.18,2.447,2.459,2.447h31.312c2.382,0,2.47-.81,2.47-2.328,0-25.138.019-42.993.019-68.112A.46.46,0,0,0,1164.534,721.587Zm-1.682,52.631a17.99,17.99,0,0,1-1.112,6.6,13.064,13.064,0,0,1-8.155,7.938,20.825,20.825,0,0,1-6.561.994c-5.012,0-8.923-1.338-11.672-4.045q-4.175-4.032-4.183-11.485V747.94h9.983V773.6a25.958,25.958,0,0,0,.245,3.449,7.746,7.746,0,0,0,.932,2.8,5.016,5.016,0,0,0,1.8,1.808,5.346,5.346,0,0,0,2.894.7,5.115,5.115,0,0,0,2.761-.7,5.029,5.029,0,0,0,1.82-1.808,8.248,8.248,0,0,0,.994-2.8,19.151,19.151,0,0,0,.279-3.449V747.94h9.975Z" transform="translate(-1129.142 -721.33)" fill="#4b4b4b"/>
          <path id="Trazado_3963" data-name="Trazado 3963" d="M1172.856,743.746c-8.526-.08-13.9.084-22.5.019-1.323-.019-1.686-.172-2.068-.738-2.979-7.234-5.8-13.424-8.5-21.441a.454.454,0,0,0-.86.161c0,25.119.046,42.974.046,68.112,0,1.518.05,2.328,2.424,2.328h31.336c2.294,0,2.436-1.3,2.436-2.447V746.262C1175.161,744.033,1174.01,743.765,1172.856,743.746Zm.168,45.333h-13.561l-9.749-30.276v30.276h-8.5V747.94h13.558l9.749,30.3v-30.3h8.506Z" transform="translate(-1101.514 -721.33)" fill="#4b4b4b"/>
        </g>
      </g>
    </g>
  </g>
</svg>
