<svg xmlns="http://www.w3.org/2000/svg" width="163.488" height="30" viewBox="0 0 163.488 30">
  <g id="Grupo_7298" data-name="Grupo 7298" transform="translate(-354.001 -316)">
    <g id="LogoEstarbien" transform="translate(354.001 316)">
      <path id="Trazado_3969" data-name="Trazado 3969" d="M561.861,533.891c0,3.523-3.195,5.858-7.455,5.858a14.6,14.6,0,0,1-7.783-2.048l1.434-3.031a13.1,13.1,0,0,0,6.1,1.679c1.884,0,3.482-.942,3.482-2.417,0-4.547-10.733-2.13-10.692-9.463.041-3.687,2.745-5.858,6.637-5.858a16.873,16.873,0,0,1,7.374,1.844l-1.434,3.113a15.38,15.38,0,0,0-5.2-1.393c-1.8,0-3.4.451-3.482,2.13,0,3.769,11.019,1.925,11.019,9.586" transform="translate(-528.118 -509.79)" fill="#fff"/>
      <path id="Trazado_3970" data-name="Trazado 3970" d="M659.29,501.7v-3.4h2.54l.409-4.055h3.687V498.3h4.22v3.4h-4.22v11.47c0,1.352.246,2.622,2.089,2.458a18.217,18.217,0,0,0,2.663-.492l.615,3.031a18.9,18.9,0,0,1-5.121.778c-3.974,0-4.342-3.728-4.342-5.08V501.7Z" transform="translate(-623.549 -489.149)" fill="#fff"/>
      <path id="Trazado_3971" data-name="Trazado 3971" d="M763.549,527.231v12.249h-2.458l-.655-2.13a8.769,8.769,0,0,1-5.9,2.5c-6.226,0-7.209-4.3-7.209-6.185,0-7.005,7.373-6.8,12.125-6.268v-.45c0-4.179-1.27-4.834-4.014-4.834a17.488,17.488,0,0,0-5.571,1.311l-1.188-2.827a16.028,16.028,0,0,1,6.514-1.884c7.783-.45,8.357,4.219,8.357,8.521m-4.1,3.318c-2.007-.246-8.316-1.024-8.316,2.786a3.224,3.224,0,0,0,3.523,3.277,5.818,5.818,0,0,0,4.793-2.908Z" transform="translate(-698.118 -509.848)" fill="#fff"/>
      <path id="Trazado_3972" data-name="Trazado 3972" d="M889.9,522.38a7.048,7.048,0,0,0-1.6-.164c-2.335,0-4.383,1.106-4.957,2.745v14.461h-4.1V518.939h2.458l.7,2.089a8.828,8.828,0,0,1,6.186-2.417,10.223,10.223,0,0,1,1.966.2Z" transform="translate(-809.858 -509.79)" fill="#fff"/>
      <path id="Trazado_3973" data-name="Trazado 3973" d="M965.589,490.732a2.648,2.648,0,0,1-2.581-1.281,7.049,7.049,0,0,1-.66-2.732q-.094-1.281-.094-3.6,0-3.467.414-8.666a63.325,63.325,0,0,1,1.545-9.872,7.126,7.126,0,0,1,1.149-2.637q.754-1,2.958-1,3.165,0,3.278,3.579.057,1.922.057,4.031,0,2.242-.17,4.71,2.3-4.409,6.048-4.409a4.926,4.926,0,0,1,4.578,2.525,9.1,9.1,0,0,1,1.074,4.634q0,.622-.057,1.281a18.588,18.588,0,0,1-2.807,8.459q4.182-2.562,6.933-9.287a9.768,9.768,0,0,1,.678-1.432q.414-.7.848-.7.377,0,.377.546a6.79,6.79,0,0,1-.377,1.865,22.978,22.978,0,0,1-5.633,9.514,13.518,13.518,0,0,1-9.815,4.182,5.983,5.983,0,0,1-2.195-.348,4.183,4.183,0,0,1-1.4-.867,3.868,3.868,0,0,1-.791-1.064,6.3,6.3,0,0,1-.763,1.224,3.942,3.942,0,0,1-1.1.961,2.881,2.881,0,0,1-1.488.377m6.387-3.353a2.517,2.517,0,0,0,1.9-.942,12.17,12.17,0,0,0,2.468-5.6,22.453,22.453,0,0,0,.584-4.766q0-3.071-1.187-3.071a2.188,2.188,0,0,0-1.648,1.017,12.084,12.084,0,0,0-1.5,2.6,35.229,35.229,0,0,0-1.262,3.325q-.565,1.743-.961,3.25t-.584,2.374q.866,1.808,2.185,1.808" transform="translate(-880.167 -460.948)" fill="#fff"/>
      <path id="Trazado_3974" data-name="Trazado 3974" d="M1127.325,494.861q-2.549,0-3.609-2.9a16.823,16.823,0,0,1-.819-5.767,33.144,33.144,0,0,1,.279-4.149q.744-5.952,2.176-7.943a3.11,3.11,0,0,1,2.66-.986,2.6,2.6,0,0,1,2.4.949q.875,1.47.875,5.451a35.543,35.543,0,0,1-1.749,10.752,20.515,20.515,0,0,0,3.674-4.586,37.03,37.03,0,0,0,2.837-5.218,10.6,10.6,0,0,1,.66-1.414,1.743,1.743,0,0,1,.465-.567.723.723,0,0,1,.381-.121q.372,0,.372.539a6.609,6.609,0,0,1-.391,1.842q-2.4,7.478-5.488,11.292-2.288,2.828-4.725,2.827m.856-23.179a3.609,3.609,0,0,1-1.414-.3,2.217,2.217,0,0,1-1.526-2.214,3.042,3.042,0,0,1,1.228-2.567,3.807,3.807,0,0,1,2.307-.781,3.886,3.886,0,0,1,1.4.279,2.32,2.32,0,0,1,1.544,2.363,3.024,3.024,0,0,1-.632,1.934,3.465,3.465,0,0,1-2.9,1.284" transform="translate(-1016.234 -465.076)" fill="#fff"/>
      <path id="Trazado_3975" data-name="Trazado 3975" d="M1210.923,535.9q-4.285,0-6.169-2.48a10.121,10.121,0,0,1-1.885-6.3,14.082,14.082,0,0,1,2.925-9.245,9.343,9.343,0,0,1,7.565-3.556,5.877,5.877,0,0,1,4.436,1.485,5.051,5.051,0,0,1,1.414,3.618,6.527,6.527,0,0,1-2.062,5.022,6.213,6.213,0,0,1-4.214,1.911,2.793,2.793,0,0,1-2.383-1.156q-.053.587-.053,1.227a11.518,11.518,0,0,0,.355,2.933q.658,2.543,2.685,2.542a3.971,3.971,0,0,0,2.151-.693,10.576,10.576,0,0,0,2.1-1.8,21.367,21.367,0,0,0,1.893-2.409,27.182,27.182,0,0,0,1.546-2.56q.668-1.262,1.076-2.258a10.318,10.318,0,0,1,.631-1.351,1.672,1.672,0,0,1,.445-.542.69.69,0,0,1,.364-.116q.356,0,.356.516a6.284,6.284,0,0,1-.374,1.76q-3,9.387-7.7,12.107a9.988,9.988,0,0,1-5.1,1.351m1.672-11.911a2.682,2.682,0,0,0,2.266-1.458,5.665,5.665,0,0,0,.934-3.111q0-1.618-1-1.618a2.71,2.71,0,0,0-1.876.693,5.221,5.221,0,0,0-1.271,1.831,11.994,11.994,0,0,0-.764,2.471,1.778,1.778,0,0,0,1.707,1.191" transform="translate(-1083.971 -506.154)" fill="#fff"/>
      <path id="Trazado_3976" data-name="Trazado 3976" d="M1343.29,535.938q-4.078,0-4.078-6.785a29.912,29.912,0,0,1,.7-6.171,24.407,24.407,0,0,1,1.4-4.817,2.362,2.362,0,0,0-1.763,1.033,19.072,19.072,0,0,0-2.956,5.966,35.96,35.96,0,0,0-1.532,5.645,8.368,8.368,0,0,1-1.157,3.6,3.4,3.4,0,0,1-2.814,1.193,2.688,2.688,0,0,1-2.066-.8q-1.033-1.068-1.033-5.147a57.513,57.513,0,0,1,.534-7.658q.588-4.452,1.8-5.895a3.346,3.346,0,0,1,2.707-1.015,2.715,2.715,0,0,1,3.045,2.547,10.7,10.7,0,0,1,.107,1.514q0,.428-.036.873a12.784,12.784,0,0,1,3.17-4.159,5.7,5.7,0,0,1,3.6-1.54q4.007,0,4.007,6.607a43.363,43.363,0,0,1-.659,6.749,31.249,31.249,0,0,1-.855,3.864,19.632,19.632,0,0,0,3.517-4.39,35.454,35.454,0,0,0,2.716-5,10.129,10.129,0,0,1,.632-1.353,1.681,1.681,0,0,1,.445-.543.693.693,0,0,1,.365-.116q.357,0,.356.516a6.306,6.306,0,0,1-.374,1.763q-2.3,7.159-5.254,10.81-2.19,2.707-4.523,2.707" transform="translate(-1189.953 -506.154)" fill="#fff"/>
      <path id="Trazado_3977" data-name="Trazado 3977" d="M429.139,509.686v7.163h12.21v3.07H425.66V496.043h15.689v3.07h-12.21v7.5h9.55v3.07Z" transform="translate(-425.66 -490.674)" fill="#fff"/>
    </g>
  </g>
</svg>
