<svg xmlns="http://www.w3.org/2000/svg" width="36" height="116.177" viewBox="0 0 36 116.177">
  <g id="Grupo_7737" data-name="Grupo 7737" transform="translate(-179 -326.818)">
    <g id="Grupo_7713" data-name="Grupo 7713" transform="translate(1)">
      <g id="Trazado_4054" data-name="Trazado 4054" transform="translate(179 351)" fill="#eee">
        <path d="M 34.5 91.99473571777344 L 33.5 91.99473571777344 L 33.5 88.00000762939453 C 33.5 84.23909759521484 32.16360092163086 80.79998779296875 29.29425430297852 77.17697143554688 C 26.69916343688965 73.90026092529297 23.16845512390137 70.87007904052734 19.4304370880127 67.66199493408203 C 10.08843612670898 59.64437484741211 -0.5 50.55702972412109 -0.5 33.99999237060547 C -0.5 16.88590049743652 10.09972763061523 8.040373802185059 19.45169067382812 0.2361006587743759 C 23.18485450744629 -2.879244804382324 26.71096420288086 -5.821826457977295 29.30118179321289 -9.063571929931641 C 32.16579818725586 -12.64871788024902 33.5 -16.12384414672852 33.5 -19.99999046325684 L 33.5 -24.18182754516602 L 34.5 -24.18182754516602 L 34.5 33.99999237060547 L 34.5 91.99473571777344 Z" stroke="none"/>
        <path d="M 34 -24.18182373046875 C 34 -24.18182373046875 34 -22.90639495849609 34 -20 C 34 -0.3635406494140625 0 3.561820983886719 0 34.00000381469727 C 0 63.45810317993164 34 68.94698333740234 34 88 C 34 90.77585601806641 34 91.99472045898438 34 91.99472045898438 C 34 91.99472045898438 34 50.04194641113281 34 34.00000381469727 C 34 18.00160980224609 34 -24.18182373046875 34 -24.18182373046875 M 33 -24.18181610107422 L 35 -24.18181610107422 L 35 91.99472045898438 L 33 91.99472045898438 L 33 88 C 33 84.35780334472656 31.69791984558105 81.01736450195312 28.90227890014648 77.48740386962891 C 26.33705902099609 74.24838256835938 22.82406044006348 71.23340606689453 19.10480117797852 68.04141998291016 C 14.34258079528809 63.95432281494141 9.418239593505859 59.72810363769531 5.572759628295898 54.34880065917969 C 1.149959564208984 48.16196441650391 -1 41.50580215454102 -1 34.00000381469727 C -1 26.24682235717773 1.152481079101562 19.47968292236328 5.580419540405273 13.31192398071289 C 9.433080673217773 7.945461273193359 14.36335945129395 3.831104278564453 19.13132095336914 -0.147796630859375 C 22.84455871582031 -3.24652099609375 26.35186004638672 -6.173377990722656 28.91056060791016 -9.375679016113281 C 31.70055961608887 -12.86745452880859 33 -16.24340057373047 33 -20 L 33 -24.18181610107422 Z" stroke="none" fill="#eee"/>
      </g>
    </g>
    <g id="chevron_right-24px" transform="translate(213 373) rotate(90)">
      <path id="Trazado_203" data-name="Trazado 203" d="M0,0H24V24H0Z" fill="none"/>
      <path id="Trazado_204" data-name="Trazado 204" d="M9.414,6.835a1.419,1.419,0,0,0,0,2.009l5.529,5.529L9.414,19.9a1.421,1.421,0,0,0,2.009,2.009l6.541-6.541a1.419,1.419,0,0,0,0-2.009L11.424,6.821A1.432,1.432,0,0,0,9.414,6.835Z" transform="translate(26.663 -1.69) rotate(90)" fill="#19abbb"/>
    </g>
  </g>
</svg>
