<svg xmlns="http://www.w3.org/2000/svg" xmlns:xlink="http://www.w3.org/1999/xlink" width="138" height="138" viewBox="0 0 138 138">
  <defs>
    <filter id="Rect치ngulo_2026" x="0" y="0" width="138" height="138" filterUnits="userSpaceOnUse">
      <feOffset dy="3" input="SourceAlpha"/>
      <feGaussianBlur stdDeviation="3" result="blur"/>
      <feFlood flood-opacity="0.161"/>
      <feComposite operator="in" in2="blur"/>
      <feComposite in="SourceGraphic"/>
    </filter>
  </defs>
  <g id="Grupo_7751" data-name="Grupo 7751" transform="translate(-437 -154)">
    <g id="Grupo_7750" data-name="Grupo 7750" transform="translate(446 160)">
      <g transform="matrix(1, 0, 0, 1, -9, -6)" filter="url(#Rect치ngulo_2026)">
        <rect id="Rect치ngulo_2026-2" data-name="Rect치ngulo 2026" width="120" height="120" rx="60" transform="translate(129 6) rotate(90)" fill="#2ab8c9"/>
      </g>
      <g id="Grupo_7749" data-name="Grupo 7749" transform="translate(33.429 10.479)">
        <path id="Trazado_4060" data-name="Trazado 4060" d="M654.153,305.231A23.333,23.333,0,1,0,631,281.888,23.249,23.249,0,0,0,654.153,305.231Z" transform="translate(-627.586 -252.124)" fill="#fff"/>
      </g>
      <path id="Trazado_4061" data-name="Trazado 4061" d="M683.161,411.979l1.2-5.013c2.838-11.844-22.751-21.418-37.917-21.418H632.724c-15.15,0-40.819,9.574-38.076,21.418L595.8,411.9a59.831,59.831,0,0,0,43.718,18.911h0A59.828,59.828,0,0,0,683.161,411.979Z" transform="translate(-579.514 -310.813)" fill="#fff"/>
    </g>
  </g>
</svg>
