<svg id="call_black_24dp" xmlns="http://www.w3.org/2000/svg" width="44" height="44" viewBox="0 0 44 44">
  <path id="Trazado_3361" data-name="Trazado 3361" d="M0,0H44V44H0Z" fill="none"/>
  <path id="Trazado_3362" data-name="Trazado 3362" d="M34.185,25.7a20.979,20.979,0,0,1-6.472-1.027,1.792,1.792,0,0,0-1.852.44l-2.878,3.612A27.836,27.836,0,0,1,10.352,16.2l3.575-3.043a1.871,1.871,0,0,0,.44-1.87A20.446,20.446,0,0,1,13.34,4.815,1.831,1.831,0,0,0,11.525,3H5.182C4.192,3,3,3.44,3,4.815A31.445,31.445,0,0,0,34.185,36,1.924,1.924,0,0,0,36,33.837V27.512A1.831,1.831,0,0,0,34.185,25.7Z" transform="translate(2.5 2.5)" fill="#19abbb"/>
</svg>
