<svg id="groups_black_24dp" xmlns="http://www.w3.org/2000/svg" width="44" height="44" viewBox="0 0 44 44">
  <rect id="Rectángulo_1786" data-name="Rectángulo 1786" width="44" height="44" fill="none"/>
  <g id="Grupo_7310" data-name="Grupo 7310" transform="translate(0 11)">
    <path id="Trazado_3980" data-name="Trazado 3980" d="M22,18.375a19.453,19.453,0,0,1,7.773,1.65,5.471,5.471,0,0,1,3.227,5v1.137A1.839,1.839,0,0,1,31.167,28H12.833A1.839,1.839,0,0,1,11,26.167V25.048a5.433,5.433,0,0,1,3.227-5A19.141,19.141,0,0,1,22,18.375Zm-14.667.458a3.667,3.667,0,1,0-3.667-3.667A3.677,3.677,0,0,0,7.333,18.833ZM9.405,20.85a12.8,12.8,0,0,0-2.072-.183,12.743,12.743,0,0,0-5.1,1.063A3.687,3.687,0,0,0,0,25.122v1.045A1.839,1.839,0,0,0,1.833,28H8.25V25.048A8.248,8.248,0,0,1,9.405,20.85Zm27.262-2.017A3.667,3.667,0,1,0,33,15.167,3.677,3.677,0,0,0,36.667,18.833ZM44,25.122a3.687,3.687,0,0,0-2.237-3.392,12.463,12.463,0,0,0-7.168-.88,8.248,8.248,0,0,1,1.155,4.2V28h6.417A1.839,1.839,0,0,0,44,26.167ZM22,6a5.5,5.5,0,1,1-5.5,5.5A5.493,5.493,0,0,1,22,6Z" transform="translate(0 -6)" fill="#19abbb"/>
  </g>
</svg>
