<svg id="Grupo_6136" data-name="Grupo 6136" xmlns="http://www.w3.org/2000/svg" width="24" height="24" viewBox="0 0 24 24">
  <rect id="Rectángulo_1358" data-name="Rectángulo 1358" width="24" height="24" fill="none"/>
  <path id="Trazado_219" data-name="Trazado 219" d="M24,4a1,1,0,0,1-1,1H22V6a1,1,0,0,1-2,0V5H19a1,1,0,0,1,0-2h1V2a1,1,0,0,1,2,0V3h1A1,1,0,0,1,24,4ZM21.52,8.95A10,10,0,1,1,12,2a9.862,9.862,0,0,1,4.2.94A3.072,3.072,0,0,0,16,4a3,3,0,0,0,2.13,2.87A3,3,0,0,0,21,9,2.957,2.957,0,0,0,21.52,8.95ZM7,9.5A1.5,1.5,0,1,0,8.5,8,1.5,1.5,0,0,0,7,9.5ZM16.31,14H7.69a.506.506,0,0,0-.44.75,5.477,5.477,0,0,0,9.5,0A.5.5,0,0,0,16.31,14ZM17,9.5A1.5,1.5,0,1,0,15.5,11,1.5,1.5,0,0,0,17,9.5Z" fill="#19abbb"/>
</svg>
