<svg xmlns="http://www.w3.org/2000/svg" width="44" height="44" viewBox="0 0 44 44">
  <g id="ico-asociacion" transform="translate(-722 -663)">
    <rect id="Rectángulo_2358" data-name="Rectángulo 2358" width="44" height="44" transform="translate(722 663)" fill="none"/>
    <path id="Trazado_4085" data-name="Trazado 4085" d="M28.513,9.8h1.335v3.8l7.934-6.8L29.848,0V4.51H28.513c-6.978,0-10.913,5.171-14.384,9.734-3.122,4.1-5.818,7.646-10.175,7.646H0v5.29H3.954c6.979,0,10.913-5.171,14.385-9.734,3.122-4.1,5.818-7.646,10.174-7.646M10.222,13.132c.3-.385.6-.778.9-1.177.738-.97,1.519-1.995,2.364-3.015A13.53,13.53,0,0,0,3.954,4.888H0v5.29H3.954a8.748,8.748,0,0,1,6.268,2.955m19.626,9.136H28.513c-2.658,0-4.7-1.324-6.594-3.285l-.573.751c-.833,1.095-1.729,2.27-2.718,3.433a13.727,13.727,0,0,0,9.885,4.391h1.335v4.534l7.934-6.8-7.934-6.8Z" transform="translate(725 669)" fill="#19abbb"/>
  </g>
</svg>
