<svg id="call_black_24dp" xmlns="http://www.w3.org/2000/svg" width="44" height="44" viewBox="0 0 44 44">
  <path id="Trazado_3976" data-name="Trazado 3976" d="M0,0H44V44H0Z" fill="none"/>
  <path id="Trazado_3977" data-name="Trazado 3977" d="M9.49,6.667a22.573,22.573,0,0,0,.825,4.748l-2.2,2.2A27.18,27.18,0,0,1,6.722,6.667H9.49M27.567,28.7a23.38,23.38,0,0,0,4.767.825V32.26a28.282,28.282,0,0,1-6.967-1.375l2.2-2.182M11.25,3H4.833A1.839,1.839,0,0,0,3,4.833,31.164,31.164,0,0,0,34.167,36,1.839,1.839,0,0,0,36,34.167v-6.4a1.839,1.839,0,0,0-1.833-1.833,20.913,20.913,0,0,1-6.545-1.045,1.539,1.539,0,0,0-.568-.092,1.878,1.878,0,0,0-1.3.532l-4.033,4.033A27.772,27.772,0,0,1,9.637,17.282l4.033-4.033a1.84,1.84,0,0,0,.458-1.87,20.827,20.827,0,0,1-1.045-6.545A1.839,1.839,0,0,0,11.25,3Z" transform="translate(2.5 2.5)" fill="#19abbb"/>
</svg>
