<svg id="question_answer_black_24dp" xmlns="http://www.w3.org/2000/svg" width="44" height="44" viewBox="0 0 44 44">
  <path id="Trazado_3365" data-name="Trazado 3365" d="M0,0H44V44H0Z" fill="none"/>
  <path id="Trazado_3366" data-name="Trazado 3366" d="M36.833,9.333H33.167v16.5H9.333V29.5a1.839,1.839,0,0,0,1.833,1.833H31.333l7.333,7.333v-27.5A1.839,1.839,0,0,0,36.833,9.333Zm-7.333,11V3.833A1.839,1.839,0,0,0,27.667,2H3.833A1.839,1.839,0,0,0,2,3.833V29.5l7.333-7.333H27.667A1.839,1.839,0,0,0,29.5,20.333Z" transform="translate(1.667 1.667)" fill="#19abbb"/>
</svg>
