<svg id="Componente_53_11" data-name="Componente 53 – 11" xmlns="http://www.w3.org/2000/svg" width="20" height="20" viewBox="0 0 20 20">
  <path id="Trazado_3983" data-name="Trazado 3983" d="M3050.23,1352.08l-4.783-4.783a7.8,7.8,0,0,0,1.137-4.065,8.249,8.249,0,0,0-8.073-8.072,7.831,7.831,0,0,0-7.831,7.831,8.249,8.249,0,0,0,8.072,8.072,7.8,7.8,0,0,0,3.943-1.066l4.809,4.809a1.2,1.2,0,0,0,1.7,0l1.193-1.192C3050.871,1353.143,3050.7,1352.55,3050.23,1352.08Zm-17.141-9.089a5.421,5.421,0,0,1,5.421-5.422,5.842,5.842,0,0,1,5.663,5.662,5.422,5.422,0,0,1-5.422,5.422A5.842,5.842,0,0,1,3033.089,1342.99Z" transform="translate(-3030.679 -1335.159)" fill="#19abbb"/>
</svg>
