<svg id="self_improvement_black_24dp" xmlns="http://www.w3.org/2000/svg" width="44" height="44" viewBox="0 0 44 44">
  <g id="Grupo_6907" data-name="Grupo 6907">
    <rect id="Rectángulo_1785" data-name="Rectángulo 1785" width="44" height="44" fill="none"/>
  </g>
  <g id="Grupo_6909" data-name="Grupo 6909" transform="translate(5.5 7.333)">
    <g id="Grupo_6908" data-name="Grupo 6908">
      <circle id="Elipse_218" data-name="Elipse 218" cx="4" cy="4" r="4" transform="translate(12.5 -0.333)" fill="#19abbb"/>
      <path id="Trazado_3975" data-name="Trazado 3975" d="M36,21.833V18.167a13.069,13.069,0,0,1-10.267-4.913L23.277,10.32A3.63,3.63,0,0,0,20.472,9H18.547a3.63,3.63,0,0,0-2.805,1.32l-2.457,2.933A13.132,13.132,0,0,1,3,18.167v3.667a16.677,16.677,0,0,0,12.833-5.958V20L8.72,22.842a3.282,3.282,0,0,0,1.228,6.325H14V28.25a4.585,4.585,0,0,1,4.583-4.583h5.5a.917.917,0,1,1,0,1.833h-5.5a2.746,2.746,0,0,0-2.75,2.75v.917H29.052a3.282,3.282,0,0,0,1.228-6.325L23.167,20V15.875A16.676,16.676,0,0,0,36,21.833Z" transform="translate(-3 0.167)" fill="#19abbb"/>
    </g>
  </g>
</svg>
