<svg xmlns="http://www.w3.org/2000/svg" width="24" height="24" viewBox="0 0 24 24">
  <g id="Grupo_7745" data-name="Grupo 7745" transform="translate(-272 -131)">
    <path id="error_outline_black_24dp" d="M12,7a1,1,0,0,1,1,1v4a1,1,0,0,1-2,0V8A1,1,0,0,1,12,7Zm-.01-5A10,10,0,1,0,22,12,10,10,0,0,0,11.99,2ZM12,20a8,8,0,1,1,8-8A8,8,0,0,1,12,20Zm1-3H11V15h2Z" transform="translate(272 131)" fill="#4b4b4b"/>
    <rect id="Rectángulo_2024" data-name="Rectángulo 2024" width="24" height="24" transform="translate(272 131)" fill="none"/>
  </g>
</svg>
