<svg xmlns="http://www.w3.org/2000/svg" width="301.999" height="55.417" viewBox="0 0 301.999 55.417">
  <g id="Grupo_7309" data-name="Grupo 7309" transform="translate(-354.001 -316)">
    <g id="LogoEstarbien" transform="translate(354.001 316)">
      <path id="Trazado_3969" data-name="Trazado 3969" d="M574.772,546.837c0,6.508-5.9,10.821-13.772,10.821a26.975,26.975,0,0,1-14.377-3.784l2.648-5.6a24.2,24.2,0,0,0,11.275,3.1c3.481,0,6.432-1.74,6.432-4.464,0-8.4-19.826-3.935-19.751-17.48.076-6.811,5.07-10.821,12.259-10.821a31.168,31.168,0,0,1,13.621,3.406l-2.649,5.751c-2.8-1.211-6.811-2.573-9.611-2.573-3.329,0-6.281.832-6.431,3.935,0,6.962,20.355,3.557,20.355,17.707" transform="translate(-512.44 -502.316)" fill="#19abbb"/>
      <path id="Trazado_3970" data-name="Trazado 3970" d="M659.29,508.015v-6.281h4.692l.756-7.491h6.81v7.491h7.794v6.281h-7.794V529.2c0,2.5.454,4.843,3.859,4.54a33.655,33.655,0,0,0,4.919-.908l1.135,5.6A34.909,34.909,0,0,1,672,539.873c-7.34,0-8.021-6.887-8.021-9.383V508.015Z" transform="translate(-593.268 -484.834)" fill="#19abbb"/>
      <path id="Trazado_3971" data-name="Trazado 3971" d="M777.293,534.475V557.1h-4.541l-1.21-3.935a16.2,16.2,0,0,1-10.9,4.616c-11.5,0-13.318-7.945-13.318-11.426,0-12.94,13.62-12.562,22.4-11.578v-.832c0-7.719-2.346-8.93-7.415-8.93a32.3,32.3,0,0,0-10.292,2.421l-2.2-5.221a29.609,29.609,0,0,1,12.032-3.481c14.378-.832,15.437,7.794,15.437,15.74m-7.568,6.13c-3.708-.454-15.361-1.892-15.361,5.146,0,4.01,3.027,6.054,6.508,6.054a10.747,10.747,0,0,0,8.853-5.373Z" transform="translate(-656.427 -502.365)" fill="#19abbb"/>
      <path id="Trazado_3972" data-name="Trazado 3972" d="M898.924,525.573a13.02,13.02,0,0,0-2.951-.3c-4.314,0-8.1,2.043-9.157,5.07v26.713h-7.568V519.217h4.541l1.286,3.859a16.307,16.307,0,0,1,11.427-4.464,18.886,18.886,0,0,1,3.632.378Z" transform="translate(-751.069 -502.316)" fill="#19abbb"/>
      <path id="Trazado_3973" data-name="Trazado 3973" d="M968.414,515.966q-3.515,0-4.767-2.367a13.021,13.021,0,0,1-1.219-5.046q-.173-2.366-.173-6.646,0-6.4.766-16.008a116.982,116.982,0,0,1,2.853-18.235A13.165,13.165,0,0,1,968,462.792q1.392-1.844,5.464-1.844,5.847,0,6.055,6.612.105,3.55.1,7.447,0,4.141-.313,8.7,4.245-8.144,11.171-8.143a9.1,9.1,0,0,1,8.456,4.663,16.816,16.816,0,0,1,1.984,8.56q0,1.148-.105,2.367a34.337,34.337,0,0,1-5.185,15.625q7.726-4.732,12.806-17.156a18.038,18.038,0,0,1,1.253-2.645q.765-1.287,1.566-1.288.7,0,.7,1.009a12.542,12.542,0,0,1-.7,3.445,42.445,42.445,0,0,1-10.406,17.574,24.972,24.972,0,0,1-18.13,7.725,11.053,11.053,0,0,1-4.054-.643,7.727,7.727,0,0,1-2.593-1.6,7.145,7.145,0,0,1-1.46-1.966,11.639,11.639,0,0,1-1.41,2.262,7.281,7.281,0,0,1-2.036,1.775,5.323,5.323,0,0,1-2.75.7m11.8-6.195a4.65,4.65,0,0,0,3.514-1.74q2.994-3.271,4.559-10.335a41.477,41.477,0,0,0,1.079-8.8q0-5.672-2.193-5.672a4.043,4.043,0,0,0-3.045,1.879,22.325,22.325,0,0,0-2.767,4.8,65.09,65.09,0,0,0-2.331,6.142q-1.044,3.219-1.774,6t-1.079,4.385q1.6,3.34,4.037,3.341" transform="translate(-810.619 -460.948)" fill="#19abbb"/>
      <path id="Trazado_3974" data-name="Trazado 3974" d="M1131.077,519.463q-4.709,0-6.666-5.361a31.078,31.078,0,0,1-1.512-10.652,61.234,61.234,0,0,1,.516-7.663q1.374-11,4.02-14.673,1.341-1.821,4.914-1.821,3.367,0,4.432,1.752,1.616,2.715,1.616,10.068a65.659,65.659,0,0,1-3.231,19.862,37.9,37.9,0,0,0,6.787-8.471,68.415,68.415,0,0,0,5.241-9.639,19.613,19.613,0,0,1,1.219-2.612,3.222,3.222,0,0,1,.859-1.048,1.336,1.336,0,0,1,.7-.224q.687,0,.688,1a12.214,12.214,0,0,1-.721,3.4q-4.434,13.814-10.138,20.858-4.225,5.224-8.728,5.223m1.581-42.817a6.665,6.665,0,0,1-2.612-.55,4.1,4.1,0,0,1-2.818-4.089,5.619,5.619,0,0,1,2.268-4.742,7.033,7.033,0,0,1,4.261-1.444,7.179,7.179,0,0,1,2.578.516,4.285,4.285,0,0,1,2.851,4.364,5.587,5.587,0,0,1-1.168,3.573,6.4,6.4,0,0,1-5.36,2.371" transform="translate(-925.865 -464.445)" fill="#19abbb"/>
      <path id="Trazado_3975" data-name="Trazado 3975" d="M1217.746,554.188q-7.915,0-11.4-4.581t-3.482-11.642q0-10.509,5.4-17.078a17.259,17.259,0,0,1,13.974-6.568q5.582,0,8.194,2.742a9.331,9.331,0,0,1,2.611,6.683,12.056,12.056,0,0,1-3.81,9.278q-3.81,3.53-7.783,3.53a5.159,5.159,0,0,1-4.4-2.135q-.1,1.084-.1,2.266a21.274,21.274,0,0,0,.656,5.419q1.216,4.7,4.96,4.7a7.335,7.335,0,0,0,3.973-1.281,19.537,19.537,0,0,0,3.876-3.333,39.448,39.448,0,0,0,3.5-4.449,50.2,50.2,0,0,0,2.857-4.73q1.233-2.331,1.987-4.171a19.043,19.043,0,0,1,1.166-2.5,3.088,3.088,0,0,1,.822-1,1.275,1.275,0,0,1,.672-.213q.657,0,.657.952a11.608,11.608,0,0,1-.69,3.251q-5.55,17.34-14.22,22.364a18.453,18.453,0,0,1-9.425,2.5m3.088-22q2.462,0,4.186-2.693a10.464,10.464,0,0,0,1.725-5.747q0-2.989-1.839-2.988a5.006,5.006,0,0,0-3.465,1.281,9.648,9.648,0,0,0-2.348,3.383,22.16,22.16,0,0,0-1.411,4.565,3.285,3.285,0,0,0,3.153,2.2" transform="translate(-983.238 -499.237)" fill="#19abbb"/>
      <path id="Trazado_3976" data-name="Trazado 3976" d="M1356.25,554.255q-7.533,0-7.533-12.534a55.248,55.248,0,0,1,1.3-11.4,45.093,45.093,0,0,1,2.582-8.9,4.363,4.363,0,0,0-3.258,1.908q-2.894,3.454-5.46,11.02a66.407,66.407,0,0,0-2.83,10.428q-.821,5.033-2.138,6.645a6.282,6.282,0,0,1-5.2,2.2,4.964,4.964,0,0,1-3.816-1.48q-1.908-1.974-1.908-9.507a106.254,106.254,0,0,1,.987-14.145q1.086-8.224,3.323-10.889,1.579-1.875,5-1.875,4.967,0,5.625,4.7a19.744,19.744,0,0,1,.2,2.8q0,.79-.066,1.612a23.616,23.616,0,0,1,5.855-7.682,10.533,10.533,0,0,1,6.646-2.845q7.4,0,7.4,12.2a80.108,80.108,0,0,1-1.218,12.468,57.714,57.714,0,0,1-1.579,7.139,36.266,36.266,0,0,0,6.5-8.109,65.49,65.49,0,0,0,5.017-9.227,18.735,18.735,0,0,1,1.168-2.5,3.1,3.1,0,0,1,.822-1,1.282,1.282,0,0,1,.675-.214q.658,0,.658.954a11.648,11.648,0,0,1-.691,3.257q-4.243,13.224-9.7,19.968-4.045,5-8.355,5" transform="translate(-1073.002 -499.237)" fill="#19abbb"/>
      <path id="Trazado_3977" data-name="Trazado 3977" d="M432.086,521.245v13.231h22.555v5.671H425.66v-44.1h28.982v5.671H432.086v13.861h17.641v5.67Z" transform="translate(-425.66 -486.126)" fill="#19abbb"/>
    </g>
  </g>
</svg>
