<svg xmlns="http://www.w3.org/2000/svg" width="124.501" height="34.425" viewBox="0 0 124.501 34.425">
  <g id="geometrias" transform="translate(-251.966 -15.575)" style="isolation: isolate">
    <g id="LogoUN" style="mix-blend-mode: difference;isolation: isolate">
      <g id="Grupo_6803" data-name="Grupo 6803" transform="translate(251.966 15.575)">
        <g id="Grupo_6798" data-name="Grupo 6798" transform="translate(34.648 9.16)">
          <path id="Trazado_3942" data-name="Trazado 3942" d="M1156.615,727.2h2.674v5.119a4.268,4.268,0,0,1-.24,1.438,3.094,3.094,0,0,1-.75,1.182,3,3,0,0,1-1.074.711,5.424,5.424,0,0,1-1.875.289,11.836,11.836,0,0,1-1.379-.089,3.659,3.659,0,0,1-1.252-.348,3.167,3.167,0,0,1-.92-.741,2.706,2.706,0,0,1-.57-.99,5.057,5.057,0,0,1-.249-1.452V727.2h2.673v5.239a1.484,1.484,0,1,0,2.962,0Z" transform="translate(-1150.979 -727.049)" fill="#fff"/>
          <path id="Trazado_3943" data-name="Trazado 3943" d="M1157.193,727.2h2.5l3.264,4.752V727.2h2.526v8.59h-2.526l-3.248-4.716v4.716h-2.518Z" transform="translate(-1147.333 -727.049)" fill="#fff"/>
          <path id="Trazado_3944" data-name="Trazado 3944" d="M1163.455,727.2h2.686v8.59h-2.686Z" transform="translate(-1143.66 -727.049)" fill="#fff"/>
          <path id="Trazado_3945" data-name="Trazado 3945" d="M1165.67,727.2h2.8l1.952,6.182,1.926-6.182h2.719l-3.219,8.59h-2.9Z" transform="translate(-1142.36 -727.049)" fill="#fff"/>
          <path id="Trazado_3946" data-name="Trazado 3946" d="M1171.988,727.2h7.179v1.834h-4.495v1.365h4.17v1.753h-4.17v1.693h4.625v1.945h-7.31Z" transform="translate(-1138.654 -727.049)" fill="#fff"/>
          <path id="Trazado_3947" data-name="Trazado 3947" d="M1177.375,735.786V727.2h4.465a6.516,6.516,0,0,1,1.9.211,2.016,2.016,0,0,1,1.06.782,2.416,2.416,0,0,1-.752,3.465,3.228,3.228,0,0,1-.941.341,1.8,1.8,0,0,1,1.125.768,3.3,3.3,0,0,1,.376.535l1.3,2.488h-3.027l-1.433-2.626a1.981,1.981,0,0,0-.485-.662,1.127,1.127,0,0,0-.655-.2h-.238v3.486Zm2.689-5.109h1.131a4.134,4.134,0,0,0,.709-.117.716.716,0,0,0,.435-.27.863.863,0,0,0-.1-1.136,1.611,1.611,0,0,0-1-.224h-1.177Z" transform="translate(-1135.493 -727.049)" fill="#fff"/>
          <path id="Trazado_3948" data-name="Trazado 3948" d="M1182.843,733l2.55-.159a1.917,1.917,0,0,0,.336.938,1.425,1.425,0,0,0,1.184.522,1.319,1.319,0,0,0,.884-.266.8.8,0,0,0,.311-.619.785.785,0,0,0-.3-.6,3.425,3.425,0,0,0-1.371-.5,5.853,5.853,0,0,1-2.515-1.042,2.089,2.089,0,0,1-.757-1.656,2.223,2.223,0,0,1,.389-1.252,2.544,2.544,0,0,1,1.165-.927,5.467,5.467,0,0,1,2.131-.338,4.39,4.39,0,0,1,2.534.612,2.641,2.641,0,0,1,1.039,1.95l-2.526.146a1.338,1.338,0,0,0-.422-.844,1.369,1.369,0,0,0-.89-.263,1.084,1.084,0,0,0-.7.2.6.6,0,0,0-.237.479.476.476,0,0,0,.2.368,2.166,2.166,0,0,0,.9.317,11.2,11.2,0,0,1,2.517.758,2.638,2.638,0,0,1,1.107.952,2.4,2.4,0,0,1,.344,1.271,2.709,2.709,0,0,1-.46,1.525,2.881,2.881,0,0,1-1.289,1.057,5.242,5.242,0,0,1-2.088.362,4.336,4.336,0,0,1-3.065-.844A3.312,3.312,0,0,1,1182.843,733Z" transform="translate(-1132.286 -727.103)" fill="#fff"/>
          <path id="Trazado_3949" data-name="Trazado 3949" d="M1188.565,727.2h2.685v8.59h-2.685Z" transform="translate(-1128.929 -727.049)" fill="#fff"/>
          <path id="Trazado_3950" data-name="Trazado 3950" d="M1191.339,727.2h3.981a4.808,4.808,0,0,1,1.9.316,3.077,3.077,0,0,1,1.2.909,3.74,3.74,0,0,1,.685,1.376,6.311,6.311,0,0,1,.214,1.664A5.768,5.768,0,0,1,1199,733.6a3.543,3.543,0,0,1-.879,1.271,2.861,2.861,0,0,1-1.206.682,6.235,6.235,0,0,1-1.6.235h-3.981Zm2.678,1.945v4.693h.657a2.775,2.775,0,0,0,1.195-.184,1.253,1.253,0,0,0,.555-.644,4.027,4.027,0,0,0,.2-1.491,2.877,2.877,0,0,0-.451-1.871,1.905,1.905,0,0,0-1.49-.5Z" transform="translate(-1127.301 -727.049)" fill="#fff"/>
          <path id="Trazado_3951" data-name="Trazado 3951" d="M1202.426,734.368h-3.042l-.422,1.418h-2.737l3.259-8.59h2.924l3.258,8.59h-2.807Zm-.557-1.856-.955-3.089-.947,3.089Z" transform="translate(-1124.435 -727.049)" fill="#fff"/>
          <path id="Trazado_3952" data-name="Trazado 3952" d="M1202.581,727.2h3.981a4.808,4.808,0,0,1,1.9.316,3.093,3.093,0,0,1,1.2.909,3.737,3.737,0,0,1,.685,1.376,6.373,6.373,0,0,1,.213,1.664,5.738,5.738,0,0,1-.316,2.137,3.519,3.519,0,0,1-.879,1.271,2.849,2.849,0,0,1-1.206.682,6.232,6.232,0,0,1-1.6.235h-3.981Zm2.68,1.945v4.693h.655a2.775,2.775,0,0,0,1.195-.184,1.264,1.264,0,0,0,.557-.644,4.039,4.039,0,0,0,.2-1.491,2.879,2.879,0,0,0-.449-1.871,1.91,1.91,0,0,0-1.49-.5Z" transform="translate(-1120.706 -727.049)" fill="#fff"/>
        </g>
        <g id="Grupo_6799" data-name="Grupo 6799" transform="translate(34.653 20.67)">
          <path id="Trazado_3953" data-name="Trazado 3953" d="M1150.982,734.449h3.994a4.838,4.838,0,0,1,1.909.317,3.1,3.1,0,0,1,1.2.908,3.73,3.73,0,0,1,.688,1.379,6.276,6.276,0,0,1,.214,1.663,5.694,5.694,0,0,1-.319,2.137,3.513,3.513,0,0,1-.881,1.272,2.878,2.878,0,0,1-1.211.681,6.281,6.281,0,0,1-1.6.236h-3.994Zm2.688,1.947v4.693h.66a2.811,2.811,0,0,0,1.2-.184,1.258,1.258,0,0,0,.558-.646,3.982,3.982,0,0,0,.2-1.49,2.878,2.878,0,0,0-.451-1.871,1.929,1.929,0,0,0-1.5-.5Z" transform="translate(-1150.982 -734.303)" fill="#fff"/>
          <path id="Trazado_3954" data-name="Trazado 3954" d="M1157.221,734.449h7.205v1.834h-4.511v1.366h4.184V739.4h-4.184V741.1h4.641v1.947h-7.335Z" transform="translate(-1147.322 -734.303)" fill="#fff"/>
          <path id="Trazado_3955" data-name="Trazado 3955" d="M1163.37,734.449h2.686v6.477h4.2v2.117h-6.883Z" transform="translate(-1143.714 -734.303)" fill="#fff"/>
          <path id="Trazado_3956" data-name="Trazado 3956" d="M1176.329,734.449h2.51l3.276,4.754v-4.754h2.534v8.593h-2.534l-3.259-4.719v4.719h-2.528Z" transform="translate(-1136.112 -734.303)" fill="#fff"/>
          <path id="Trazado_3957" data-name="Trazado 3957" d="M1183.1,738.806a4.387,4.387,0,0,1,1.188-3.276,4.5,4.5,0,0,1,3.3-1.172,4.591,4.591,0,0,1,3.35,1.152,4.316,4.316,0,0,1,1.174,3.226,5.227,5.227,0,0,1-.514,2.47,3.635,3.635,0,0,1-1.484,1.5,4.952,4.952,0,0,1-2.418.536,5.63,5.63,0,0,1-2.435-.463,3.653,3.653,0,0,1-1.565-1.466A4.808,4.808,0,0,1,1183.1,738.806Zm2.689.011a2.863,2.863,0,0,0,.489,1.869,1.872,1.872,0,0,0,2.674.013,3.146,3.146,0,0,0,.474-2,2.63,2.63,0,0,0-.5-1.772,1.7,1.7,0,0,0-1.344-.56,1.646,1.646,0,0,0-1.306.568A2.864,2.864,0,0,0,1185.787,738.817Z" transform="translate(-1132.141 -734.357)" fill="#fff"/>
          <path id="Trazado_3958" data-name="Trazado 3958" d="M1190.327,743.042v-8.593h4.481a6.565,6.565,0,0,1,1.906.213,2.025,2.025,0,0,1,1.063.782,2.35,2.35,0,0,1,.4,1.39,2.287,2.287,0,0,1-1.158,2.075,3.242,3.242,0,0,1-.944.339,2.732,2.732,0,0,1,.7.317,2.653,2.653,0,0,1,.432.451,3.209,3.209,0,0,1,.375.535l1.3,2.491h-3.037l-1.438-2.628a2.006,2.006,0,0,0-.487-.662,1.143,1.143,0,0,0-.659-.2h-.236v3.487Zm2.7-5.112h1.133a3.975,3.975,0,0,0,.712-.117.7.7,0,0,0,.436-.268.861.861,0,0,0-.1-1.138,1.64,1.64,0,0,0-1-.222h-1.179Z" transform="translate(-1127.9 -734.303)" fill="#fff"/>
          <path id="Trazado_3959" data-name="Trazado 3959" d="M1196.424,734.449h8.171v2.121h-2.742v6.472h-2.688V736.57h-2.742Z" transform="translate(-1124.323 -734.303)" fill="#fff"/>
          <path id="Trazado_3960" data-name="Trazado 3960" d="M1202.95,734.449h7.2v1.834h-4.509v1.366h4.184V739.4h-4.184V741.1h4.641v1.947h-7.335Z" transform="translate(-1120.494 -734.303)" fill="#fff"/>
        </g>
        <g id="Grupo_6802" data-name="Grupo 6802">
          <g id="Grupo_6801" data-name="Grupo 6801" transform="translate(2.407 29.766)">
            <g id="Grupo_6800" data-name="Grupo 6800">
              <path id="Trazado_3961" data-name="Trazado 3961" d="M1155.247,740.615c-.024-.163-.052-.531-.69-.525l-22.218.043c-.693.029-.776.376-.9.85-.412,1.677-.39,1.561-.754,3.127-.03.248-.141.652.444.638l11.759-2.773a3.738,3.738,0,0,1,1-.008c4.455,1.084,7.476,1.69,11.91,2.775.384.013.468-.249.416-.557-.476-1.791-.495-1.791-.973-3.57" transform="translate(-1130.659 -740.09)" fill="#fff"/>
            </g>
          </g>
          <path id="Trazado_3962" data-name="Trazado 3962" d="M1143.83,721.436a78.935,78.935,0,0,1-3.521,8.9c-.157.235-.313.3-.868.306-3.568.027-5.783-.046-9.336-.008-.47.008-.954.119-.963,1.044V749.72c.01.478.075,1.015,1.021,1.015h12.995c.989,0,1.025-.336,1.025-.966,0-10.432.008-17.842.008-28.266A.191.191,0,0,0,1143.83,721.436Zm-.7,21.842a7.464,7.464,0,0,1-.462,2.739,5.422,5.422,0,0,1-3.384,3.294,8.642,8.642,0,0,1-2.723.412,6.623,6.623,0,0,1-4.844-1.679,6.318,6.318,0,0,1-1.736-4.766V732.373h4.143v10.648a10.768,10.768,0,0,0,.1,1.431,3.214,3.214,0,0,0,.387,1.161,2.082,2.082,0,0,0,.748.75,2.219,2.219,0,0,0,1.2.29,2.123,2.123,0,0,0,1.146-.29,2.087,2.087,0,0,0,.755-.75,3.423,3.423,0,0,0,.413-1.161,7.948,7.948,0,0,0,.116-1.431V732.373h4.14Z" transform="translate(-1129.142 -721.33)" fill="#fff"/>
          <path id="Trazado_3963" data-name="Trazado 3963" d="M1153.008,730.633c-3.538-.033-5.771.035-9.337.008-.549-.008-.7-.071-.858-.306-1.236-3-2.407-5.571-3.527-8.9a.189.189,0,0,0-.357.067c0,10.424.019,17.834.019,28.266,0,.63.021.966,1.006.966h13c.952,0,1.011-.538,1.011-1.015V731.677C1153.965,730.752,1153.487,730.641,1153.008,730.633Zm.07,18.813h-5.628l-4.046-12.565v12.565h-3.529V732.373h5.626l4.046,12.573V732.373h3.53Z" transform="translate(-1123.401 -721.33)" fill="#fff"/>
        </g>
      </g>
    </g>
  </g>
</svg>
